<svg xmlns="http://www.w3.org/2000/svg" version="1.1" xmlns:xlink="http://www.w3.org/1999/xlink" xmlns:svgjs="http://svgjs.com/svgjs" width="800" height="1000" preserveAspectRatio="none" viewBox="0 0 800 1000"><g mask="url(&quot;#SvgjsMask1026&quot;)" fill="none"><rect width="800" height="1000" x="0" y="0" fill="rgba(217, 223, 246, 1)"></rect><path d="M0,333.36C68.385,325.33,140.025,344.599,201.391,313.371C265.67,280.661,302.342,215.641,345.251,157.671C399.272,84.689,490.299,20.917,484.956,-69.726C479.648,-159.764,379.914,-209.873,319.63,-276.961C260.597,-342.656,220.376,-437.203,134.869,-459.323C49.616,-481.378,-32.128,-420.917,-114.283,-389.213C-189.413,-360.22,-267.047,-337.497,-325.194,-281.783C-386.947,-222.613,-441.868,-149.923,-452.579,-65.071C-463.224,19.261,-421.342,99.056,-382.834,174.834C-345.696,247.915,-310.009,333.167,-234.27,364.53C-159.98,395.292,-79.858,342.738,0,333.36" fill="#8ea0e4"></path><path d="M800 1365.806C871.116 1365.92 949.596 1362.82 1002.9590000000001 1315.811 1054.9180000000001 1270.04 1053.969 1191.3319999999999 1073.479 1124.893 1090.055 1068.446 1109.356 1014.438 1108.733 955.611 1108.037 889.857 1110.065 818.217 1069.684 766.318 1028.769 713.733 955.496 705.456 894.05 679.696 824.026 650.3399999999999 759.113 594.213 683.896 604.585 606.284 615.287 533.423 667.148 494.008 734.857 456.417 799.433 489.782 879.921 480.461 954.057 471.369 1026.366 417.537 1095.077 440 1164.407 462.86 1234.962 532.732 1278.951 597.458 1315.161 659.448 1349.841 728.969 1365.692 800 1365.806" fill="#ffffff"></path></g><defs><mask id="SvgjsMask1026"><rect width="800" height="1000" fill="#ffffff"></rect></mask></defs></svg>